<?xml version="1.0" encoding="utf-8"?>
<!-- Generator: Adobe Illustrator 21.0.0, SVG Export Plug-In . SVG Version: 6.00 Build 0)  -->
<svg version="1.1" id="Layer_1" xmlns="http://www.w3.org/2000/svg" xmlns:xlink="http://www.w3.org/1999/xlink" x="0px" y="0px"
	 viewBox="0 0 900 900" style="enable-background:new 0 0 900 900;" xml:space="preserve">
<style type="text/css">
	.st0{fill:#646464;stroke:#A2A2A2;stroke-width:15;stroke-linecap:round;stroke-linejoin:round;stroke-miterlimit:10;}
	.st1{fill:none;}
	.st2{font-family:'ArialMT';}
	.st3{font-size:12px;}
	.st4{fill:#646464;stroke:#A2A2A2;stroke-width:15;stroke-linejoin:round;stroke-miterlimit:10;}
</style>
<g>
	<path class="st0" d="M839.5,400.4c3.1,25.7,2.4,12.5,2.4,40.5c0,218.8-177.4,396.2-396.2,396.2S49.4,659.7,49.4,440.8
		c0-29.8,4.3-53.8,10.5-81.7"/>
	<path id="SVGID_x5F_1_x5F_" class="st1" d="M80.7,524.6c0,0,54.5,276,364,276s360.9-288,360.9-288"/>
	<text class="st2 st3"> </text>
	<path class="st4" d="M127.4,374.4c55.2-101,157.2-167,280.5-173.4c147.2-7.7,311.1,76.3,366.3,204.1"/>
	<path class="st0" d="M406.7,198.6c0,0,151.1-166.4,171.4-50.2c20.6,118.2-108,343.4-108,343.4s20.1,23.8,66.8-6.3
		c0,0,159.6-346.7,22-373.6c-41.7-8.2-76.2,88.7-76.2,88.7L406.7,198.6z"/>
	<path class="st0" d="M423.7,564.6c0,0-4.5-42,52.5-42c0,0,37-49,145-49c0,0,43.3-76.5,217.5-76.5"/>
	<path class="st0" d="M355.1,564.6c0,0-11-84-150-84c0,0-12.3-124.5-144.5-124.5"/>
	<path class="st0" d="M489.8,509.9c0,0-43.6-47.3-165.6-47.3c0,0-31.1-76-167.5-76"/>
	<text transform="matrix(1 0 0 1 864.6034 656.5)" class="st2 st3"> </text>
	<text class="st2 st3"> </text>
</g>
</svg>
