<?xml version="1.0" encoding="utf-8"?>
<!-- Generator: Adobe Illustrator 21.0.0, SVG Export Plug-In . SVG Version: 6.00 Build 0)  -->
<svg version="1.1" id="Layer_1" xmlns="http://www.w3.org/2000/svg" xmlns:xlink="http://www.w3.org/1999/xlink" x="0px" y="0px"
	 viewBox="0 0 900 900" style="enable-background:new 0 0 900 900;" xml:space="preserve">
<style type="text/css">
	.st0{font-family:'ArialMT';}
	.st1{font-size:12px;}
	.st2{fill:#646464;stroke:#59ABE3;stroke-width:15;stroke-linejoin:round;stroke-miterlimit:10;}
	.st3{fill:#646464;stroke:#59ABE3;stroke-width:15;stroke-linecap:round;stroke-linejoin:round;stroke-miterlimit:10;}
	.st4{fill:none;stroke:#F75C4C;stroke-width:15;stroke-linecap:round;stroke-linejoin:round;stroke-miterlimit:10;}
</style>
<text class="st0 st1"> </text>
<text class="st0 st1"> </text>
<g>
	<path class="st2" d="M127.4,374.4c55.2-101,157.2-167,280.5-173.4c147.2-7.7,311.1,76.3,366.3,204.1"/>
	<path class="st3" d="M839.5,400.4c3.1,25.7,2.4,12.5,2.4,40.5c0,218.8-177.4,396.2-396.2,396.2S49.4,659.7,49.4,440.8
		c0-29.8,4.3-53.8,10.5-81.7"/>
	<path class="st3" d="M355.1,564.6c0,0-7.7-59.1-92.4-78.2c-32-7.2-59.1-28.4-74.2-57.4c-17.8-34.2-54.3-72.9-127.9-72.9"/>
	<path class="st2" d="M411.1,199.7c-0.2,0-0.3-0.3-0.2-0.4c8.4-9.3,152.6-166.7,172.3-53.9c20.3,116.4-128.3,322.8-132.7,329
		c-0.1,0.1-4.8,8.8-4.8,8.9c1.5,2.1,24.3,18.3,51.3,18.9c25.3,0.6,41.2-24.2,50.9-24.8c0.1,0,0.2-0.1,0.2-0.1
		c3.4-7.6,151.9-341.8,15.9-368.4c-40.7-8-77.3,89-79,93.7c0,0.1-0.1,0.2-0.3,0.2l-33.9-3.4l0,0L411.1,199.7z"/>
	<path class="st3" d="M489.8,528L489.8,528c0-12.8-6.7-24.7-17.6-31.5c-19.7-12.1-57-28.8-118.4-32.9c-17.6-1.2-33.9-9.7-44.9-23.4
		c-24-29.9-77.9-79-172.8-79"/>
	<path class="st3" d="M423.7,564.6c0,0,6-24,38.6-33.1c14.6-4.1,27-13.5,35.6-25.9c9.9-14.1,31.7-30.2,80-33.5
		c11.5-0.8,26.9-1.4,31.6-11.9c21.7-48.6,98-63.1,229.2-63.1"/>
</g>
<path class="st4" d="M590.4,809.8"/>
</svg>
